<svg width="189" height="146" viewBox="0 0 189 146" fill="none" xmlns="http://www.w3.org/2000/svg">
<g clip-path="url(#clip0_178_16)">
<path d="M165.375 9.125C168.508 9.125 171.512 10.0864 173.728 11.7977C175.943 13.5089 177.188 15.8299 177.188 18.25V127.75C177.188 130.17 175.943 132.491 173.728 134.202C171.512 135.914 168.508 136.875 165.375 136.875H23.625C20.4921 136.875 17.4876 135.914 15.2723 134.202C13.057 132.491 11.8125 130.17 11.8125 127.75V18.25C11.8125 15.8299 13.057 13.5089 15.2723 11.7977C17.4876 10.0864 20.4921 9.125 23.625 9.125H165.375ZM23.625 0C17.3593 0 11.3501 1.92276 6.9196 5.3453C2.48906 8.76784 0 13.4098 0 18.25L0 127.75C0 132.59 2.48906 137.232 6.9196 140.655C11.3501 144.077 17.3593 146 23.625 146H165.375C171.641 146 177.65 144.077 182.08 140.655C186.511 137.232 189 132.59 189 127.75V18.25C189 13.4098 186.511 8.76784 182.08 5.3453C177.65 1.92276 171.641 0 165.375 0L23.625 0Z" fill="black"/>
<path d="M136.423 91.9233C136.423 97.8951 134.797 102.73 132.809 102.73C130.813 102.73 129.195 97.8951 129.195 91.9233C129.195 85.9514 130.813 81.1089 132.809 81.1089C134.797 81.1089 136.423 85.9595 136.423 91.9233Z" fill="#2F2F2F"/>
<path d="M131.239 101.665C131.239 101.665 132.201 103.249 133.243 103.786C135.602 104.996 138.885 104.549 140.857 101.787L139.8 95.2056L133.125 96.5137L131.239 101.665Z" fill="#2F2F2F"/>
<path d="M62.7088 105.614C62.7088 111.992 60.5231 117.167 57.8403 117.167C55.1496 117.167 52.9639 111.992 52.9639 105.614C52.9639 99.2274 55.1496 94.0518 57.8403 94.0518C60.5231 94.0599 62.7088 99.2274 62.7088 105.614Z" fill="#2F2F2F"/>
<path d="M55.7178 116.038C55.7178 116.038 57.0118 117.736 58.4321 118.305C61.6121 119.597 66.0308 119.117 68.69 116.176L67.2618 109.14L58.2664 110.537L55.7178 116.038Z" fill="#2F2F2F"/>
<path d="M71.5779 105.614C71.5779 111.992 69.3922 117.167 66.7094 117.167C64.0187 117.167 61.833 111.992 61.833 105.614C61.833 99.2274 64.0187 94.0518 66.7094 94.0518C69.3922 94.0599 71.5779 99.2274 71.5779 105.614Z" fill="#2F2F2F"/>
<path d="M115.631 105.614C115.631 111.992 113.445 117.167 110.763 117.167C108.072 117.167 105.886 111.992 105.886 105.614C105.886 99.2274 108.072 94.0518 110.763 94.0518C113.445 94.0599 115.631 99.2274 115.631 105.614Z" fill="#2F2F2F"/>
<path d="M108.64 116.038C108.64 116.038 109.934 117.736 111.355 118.305C114.534 119.597 118.953 119.117 121.62 116.176L120.192 109.14L111.197 110.537L108.64 116.038Z" fill="#2F2F2F"/>
<path d="M133.953 30.9204H57.6586C49.7443 30.9204 44.1262 35.901 44.1262 43.2298V95.506C44.1262 103.647 50.5413 110.253 58.4477 110.253H102.375C113.911 110.253 117.683 108.717 124.737 103.932C131.988 99.016 145 90.891 145 84.2285V43.1567C145 35.0154 141.859 30.9204 133.953 30.9204Z" fill="#FCC21B"/>
<mask id="mask0_178_16" style="mask-type:luminance" maskUnits="userSpaceOnUse" x="44" y="30" width="101" height="81">
<path d="M133.953 30.9204H57.6586C49.7443 30.9204 44.1262 35.901 44.1262 43.2298V95.506C44.1262 103.647 50.5413 110.253 58.4477 110.253H102.375C113.911 110.253 117.683 108.717 124.737 103.932C131.988 99.016 145 90.891 145 84.2285V43.1567C145 35.0154 141.859 30.9204 133.953 30.9204Z" fill="white"/>
</mask>
<g mask="url(#mask0_178_16)">
<path d="M43.7002 87.6817H111.82V111.594H43.7002V87.6817ZM111.82 116.542L147.62 92.4511V65.5654L111.82 87.6817V116.542Z" fill="#ED6C30"/>
</g>
<path d="M107.212 75.6244C107.212 78.3544 105.058 80.5806 102.398 80.5806H56.1594C53.5081 80.5806 51.354 78.3544 51.354 75.6244V44.1481C51.354 41.4181 53.5081 39.1919 56.1594 39.1919H102.391C105.05 39.1919 107.204 41.4181 107.204 44.1481V75.6244H107.212Z" fill="#40C0E7"/>
<mask id="mask1_178_16" style="mask-type:luminance" maskUnits="userSpaceOnUse" x="51" y="39" width="57" height="42">
<path d="M107.212 75.6244C107.212 78.3544 105.058 80.5806 102.398 80.5806H56.1594C53.5081 80.5806 51.354 78.3544 51.354 75.6244V44.1481C51.354 41.4181 53.5081 39.1919 56.1594 39.1919H102.391C105.05 39.1919 107.204 41.4181 107.204 44.1481V75.6244H107.212Z" fill="white"/>
</mask>
<g mask="url(#mask1_178_16)">
<path d="M49.2156 37.2827H109.973V51.8102H49.2156V37.2827Z" fill="#2F2F2F"/>
</g>
<mask id="mask2_178_16" style="mask-type:luminance" maskUnits="userSpaceOnUse" x="51" y="39" width="57" height="42">
<path d="M107.212 75.6244C107.212 78.3544 105.058 80.5806 102.398 80.5806H56.1594C53.5081 80.5806 51.354 78.3544 51.354 75.6244V44.1481C51.354 41.4181 53.5081 39.1919 56.1594 39.1919H102.391C105.05 39.1919 107.204 41.4181 107.204 44.1481V75.6244H107.212Z" fill="white"/>
</mask>
<g mask="url(#mask2_178_16)">
<path d="M59.9705 42.0923H99.2105V48.6735H59.9705V42.0923Z" fill="white"/>
</g>
<path d="M129.55 60.788C129.55 62.9005 128.351 65.3055 126.781 66.2236L120.934 69.6443C118.772 70.8955 116.886 69.7824 116.886 67.0443V44.7655C116.886 42.0355 118.779 39.8174 120.934 39.8174H126.781C128.351 39.8174 129.55 41.5318 129.55 43.628V60.788ZM138.956 42.7586C138.956 41.158 138.38 39.858 137.638 39.858H135.003C134.087 39.858 133.298 41.4099 133.298 43.3111V58.7974C133.298 60.6986 134.087 61.7549 135.003 61.1618L137.638 59.5043C138.38 59.033 138.956 57.3755 138.956 55.7749V42.7586Z" fill="#40C0E7"/>
<path d="M56.6882 102.916C59.6821 102.916 62.1091 100.421 62.1091 97.3423C62.1091 94.264 59.6821 91.7686 56.6882 91.7686C53.6943 91.7686 51.2673 94.264 51.2673 97.3423C51.2673 100.421 53.6943 102.916 56.6882 102.916Z" fill="white"/>
<path d="M106.438 97.3423C106.438 100.422 104.008 102.916 101.01 102.916C98.027 102.916 95.5967 100.422 95.5967 97.3423C95.5967 94.2548 98.0191 91.7686 101.01 91.7686C104.008 91.7686 106.438 94.2548 106.438 97.3423Z" fill="white"/>
<path d="M124.5 105.614C124.5 111.992 122.314 117.168 119.632 117.168C116.941 117.168 114.755 111.992 114.755 105.614C114.755 99.2276 116.941 94.052 119.632 94.052C122.314 94.0601 124.5 99.2276 124.5 105.614ZM142.996 91.9233C142.996 97.8951 141.378 102.73 139.382 102.73C137.385 102.73 135.768 97.8951 135.768 91.9233C135.768 85.9514 137.385 81.1089 139.382 81.1089C141.386 81.1089 142.996 85.9595 142.996 91.9233Z" fill="#2F2F2F"/>
</g>
<defs>
<clipPath id="clip0_178_16">
<rect width="189" height="146" fill="white"/>
</clipPath>
</defs>
</svg>
