<svg width="189" height="146" viewBox="0 0 189 146" fill="none" xmlns="http://www.w3.org/2000/svg">
<g clip-path="url(#clip0_178_14)">
<path d="M165.375 9.125C168.508 9.125 171.512 10.0864 173.728 11.7977C175.943 13.5089 177.188 15.8299 177.188 18.25V127.75C177.188 130.17 175.943 132.491 173.728 134.202C171.512 135.914 168.508 136.875 165.375 136.875H23.625C20.4921 136.875 17.4876 135.914 15.2723 134.202C13.057 132.491 11.8125 130.17 11.8125 127.75V18.25C11.8125 15.8299 13.057 13.5089 15.2723 11.7977C17.4876 10.0864 20.4921 9.125 23.625 9.125H165.375ZM23.625 0C17.3593 0 11.3501 1.92276 6.9196 5.3453C2.48906 8.76784 0 13.4098 0 18.25L0 127.75C0 132.59 2.48906 137.232 6.9196 140.655C11.3501 144.077 17.3593 146 23.625 146H165.375C171.641 146 177.65 144.077 182.08 140.655C186.511 137.232 189 132.59 189 127.75V18.25C189 13.4098 186.511 8.76784 182.08 5.3453C177.65 1.92276 171.641 0 165.375 0L23.625 0Z" fill="black"/>
<g clip-path="url(#clip1_178_14)">
<path d="M117.868 27.5C121.326 27.5001 124.716 28.3726 127.658 30.0198C130.6 31.667 132.978 34.0238 134.525 36.8263L143.111 52.3794C144.626 51.8169 146.135 51.2487 147.6 50.5906C149.073 49.9238 150.779 49.8146 152.342 50.2872C153.904 50.7598 155.195 51.7754 155.931 53.1106C156.667 54.4458 156.788 55.9912 156.266 57.4069C155.745 58.8226 154.624 59.9925 153.15 60.6594C150.083 62.0431 148.68 62.4706 148.68 62.4706L154.615 73.2313C155.913 75.5769 156.583 78.1588 156.583 80.78V95C156.587 97.3748 156.036 99.7233 154.966 101.891C153.896 104.059 152.331 105.997 150.375 107.577V114.688C150.375 116.925 149.394 119.071 147.647 120.654C145.901 122.236 143.532 123.125 141.062 123.125C138.593 123.125 136.224 122.236 134.477 120.654C132.731 119.071 131.75 116.925 131.75 114.688V111.875H57.2499V114.688C57.2499 116.925 56.2688 119.071 54.5223 120.654C52.7759 122.236 50.4072 123.125 47.9374 123.125C45.4676 123.125 43.0989 122.236 41.3525 120.654C39.606 119.071 38.6249 116.925 38.6249 114.688V107.577C34.813 104.484 32.4166 99.995 32.4166 95V80.78C32.4177 78.1613 33.0915 75.5788 34.3846 73.2369L40.3198 62.4706C38.8161 61.9056 37.3296 61.3035 35.8622 60.665C35.1304 60.3361 34.4775 59.8795 33.9408 59.3215C33.4041 58.7635 32.9943 58.115 32.7348 57.4132C32.4752 56.7114 32.3711 55.9701 32.4284 55.2318C32.4856 54.4935 32.7031 53.7726 33.0684 53.1106C33.8207 51.7824 35.1193 50.7754 36.6839 50.3071C38.2484 49.8388 39.9535 49.9467 41.4311 50.6075C42.89 51.2487 44.3862 51.8281 45.8887 52.3794L54.4748 36.8263C56.0218 34.0238 58.3995 31.667 61.3414 30.0198C64.2834 28.3726 67.6734 27.5001 71.1317 27.5H117.868ZM136.928 66.335C126.373 69.3556 111.356 72.5 94.4999 72.5C77.6443 72.5 62.6263 69.35 52.0722 66.335L45.4913 78.26C45.0586 79.0422 44.8333 79.9051 44.8332 80.78V95C44.8332 96.4918 45.4873 97.9226 46.6516 98.9775C47.8159 100.032 49.395 100.625 51.0416 100.625H137.958C139.605 100.625 141.184 100.032 142.348 98.9775C143.512 97.9226 144.167 96.4918 144.167 95V80.78C144.166 79.907 143.94 79.0461 143.508 78.2656L136.928 66.335ZM66.5624 78.125C69.0322 78.125 71.4009 79.0139 73.1473 80.5963C74.8938 82.1786 75.8749 84.3247 75.8749 86.5625C75.8749 88.8003 74.8938 90.9464 73.1473 92.5287C71.4009 94.1111 69.0322 95 66.5624 95C64.0926 95 61.7239 94.1111 59.9775 92.5287C58.231 90.9464 57.2499 88.8003 57.2499 86.5625C57.2499 84.3247 58.231 82.1786 59.9775 80.5963C61.7239 79.0139 64.0926 78.125 66.5624 78.125ZM122.437 78.125C124.907 78.125 127.276 79.0139 129.022 80.5963C130.769 82.1786 131.75 84.3247 131.75 86.5625C131.75 88.8003 130.769 90.9464 129.022 92.5287C127.276 94.1111 124.907 95 122.437 95C119.968 95 117.599 94.1111 115.852 92.5287C114.106 90.9464 113.125 88.8003 113.125 86.5625C113.125 84.3247 114.106 82.1786 115.852 80.5963C117.599 79.0139 119.968 78.125 122.437 78.125ZM117.868 38.75H71.1317C69.9791 38.7506 68.8494 39.0418 67.8691 39.5912C66.8888 40.1406 66.0967 40.9264 65.5815 41.8606L57.6969 56.1313C67.3074 58.7469 80.258 61.25 94.4999 61.25C108.742 61.25 121.692 58.7469 131.297 56.1313L123.418 41.8606C122.903 40.9264 122.111 40.1406 121.131 39.5912C120.15 39.0418 119.021 38.7506 117.868 38.75Z" fill="black"/>
</g>
</g>
<defs>
<clipPath id="clip0_178_14">
<rect width="189" height="146" fill="white"/>
</clipPath>
<clipPath id="clip1_178_14">
<rect width="149" height="135" fill="white" transform="translate(20 5)"/>
</clipPath>
</defs>
</svg>
