<svg width="189" height="146" viewBox="0 0 189 146" fill="none" xmlns="http://www.w3.org/2000/svg">
<g clip-path="url(#clip0_178_12)">
<path d="M165.375 9.125C168.508 9.125 171.512 10.0864 173.728 11.7977C175.943 13.5089 177.188 15.8299 177.188 18.25V127.75C177.188 130.17 175.943 132.491 173.728 134.202C171.512 135.914 168.508 136.875 165.375 136.875H23.625C20.4921 136.875 17.4876 135.914 15.2723 134.202C13.057 132.491 11.8125 130.17 11.8125 127.75V18.25C11.8125 15.8299 13.057 13.5089 15.2723 11.7977C17.4876 10.0864 20.4921 9.125 23.625 9.125H165.375ZM23.625 0C17.3593 0 11.3501 1.92276 6.9196 5.3453C2.48906 8.76784 0 13.4098 0 18.25L0 127.75C0 132.59 2.48906 137.232 6.9196 140.655C11.3501 144.077 17.3593 146 23.625 146H165.375C171.641 146 177.65 144.077 182.08 140.655C186.511 137.232 189 132.59 189 127.75V18.25C189 13.4098 186.511 8.76784 182.08 5.3453C177.65 1.92276 171.641 0 165.375 0L23.625 0Z" fill="black"/>
<path d="M123.907 55.6668L102.52 32.8335H79.0001V44.2502H98.1468L108.813 55.6668H65.6667C52.3334 55.6668 41.6667 67.0835 41.6667 81.3543C41.6667 95.6252 52.3334 107.042 65.6667 107.042C77.5067 107.042 87.3201 97.7943 89.2401 85.7498L100.547 78.5002C100.333 79.4706 100.333 80.3839 100.333 81.3543C100.333 95.6252 111 107.042 124.333 107.042C137.667 107.042 148.333 95.6252 148.333 81.3543C148.333 67.0835 137.667 55.6668 124.333 55.6668M78.1468 85.6927C76.3334 91.4581 71.4267 95.6252 65.5067 95.6252C61.9705 95.6252 58.5791 94.1216 56.0787 91.4453C53.5782 88.769 52.1734 85.1392 52.1734 81.3543C52.1734 77.5695 53.5782 73.9396 56.0787 71.2633C58.5791 68.587 61.9705 67.0835 65.5067 67.0835C71.4801 67.0835 76.3334 71.3077 78.1468 77.0731H63.0001V85.6356L78.1468 85.6927ZM124.173 95.6252C120.637 95.6252 117.246 94.1216 114.745 91.4453C112.245 88.769 110.84 85.1392 110.84 81.3543C110.84 77.5695 112.245 73.9396 114.745 71.2633C117.246 68.587 120.637 67.0835 124.173 67.0835C127.71 67.0835 131.101 68.587 133.602 71.2633C136.102 73.9396 137.507 77.5695 137.507 81.3543C137.507 85.1392 136.102 88.769 133.602 91.4453C131.101 94.1216 127.71 95.6252 124.173 95.6252ZM89.6667 124.167H68.3334L100.333 141.292V129.875H121.667L89.6667 112.75V124.167Z" fill="black"/>
</g>
<defs>
<clipPath id="clip0_178_12">
<rect width="189" height="146" fill="white"/>
</clipPath>
</defs>
</svg>
