<svg width="189" height="146" viewBox="0 0 189 146" fill="none" xmlns="http://www.w3.org/2000/svg">
<g clip-path="url(#clip0_178_10)">
<path d="M165.375 9.125C168.508 9.125 171.512 10.0864 173.728 11.7977C175.943 13.5089 177.188 15.8299 177.188 18.25V127.75C177.188 130.17 175.943 132.491 173.728 134.202C171.512 135.914 168.508 136.875 165.375 136.875H23.625C20.4921 136.875 17.4876 135.914 15.2723 134.202C13.057 132.491 11.8125 130.17 11.8125 127.75V18.25C11.8125 15.8299 13.057 13.5089 15.2723 11.7977C17.4876 10.0864 20.4921 9.125 23.625 9.125H165.375ZM23.625 0C17.3593 0 11.3501 1.92276 6.9196 5.3453C2.48906 8.76784 0 13.4098 0 18.25L0 127.75C0 132.59 2.48906 137.232 6.9196 140.655C11.3501 144.077 17.3593 146 23.625 146H165.375C171.641 146 177.65 144.077 182.08 140.655C186.511 137.232 189 132.59 189 127.75V18.25C189 13.4098 186.511 8.76784 182.08 5.3453C177.65 1.92276 171.641 0 165.375 0L23.625 0Z" fill="black"/>
<path d="M132.936 117.726C143.439 116.711 149.266 108.572 147.282 100.592C145.732 94.3779 139.343 88.1638 128.069 89.2399C116.116 90.3766 112.382 99.9478 113.913 106.374C115.708 113.884 123.148 118.673 132.936 117.726Z" fill="#4D453C"/>
<path d="M128.83 96.2041C124.027 96.9923 120.484 100.425 121.399 104.987C122.36 109.784 127.398 111.777 132.401 111.012C137.721 110.193 140.349 106.563 139.497 102.145C138.736 98.1593 133.833 95.3857 128.83 96.2041Z" fill="white"/>
<path d="M131.531 109.769C136.089 109.337 138.627 105.874 137.766 102.472C137.095 99.8269 134.313 97.1821 129.419 97.6368C124.227 98.1218 122.604 102.199 123.275 104.935C124.045 108.14 127.281 110.179 131.531 109.769Z" fill="#B0B0B0"/>
<path d="M59.4207 118.113C69.6885 117.128 75.3797 109.247 73.4404 101.524C71.9269 95.5074 65.6738 89.4979 54.6629 90.5361C42.9813 91.635 39.32 100.903 40.8244 107.125C42.5825 114.4 49.8597 119.03 59.4207 118.113Z" fill="#4D453C"/>
<path d="M55.5329 96.5607C50.5213 97.3791 46.8329 100.956 47.7844 105.707C48.7904 110.709 53.8472 112.876 59.0672 112.073C64.6044 111.224 67.3685 107.413 66.4804 102.813C65.6829 98.6598 60.7347 95.712 55.5329 96.5607Z" fill="white"/>
<path d="M58.1609 110.209C62.5109 109.8 64.9215 106.518 64.0968 103.298C63.4534 100.789 60.8072 98.2884 56.14 98.7203C51.1918 99.175 49.6422 103.04 50.2765 105.632C51.0287 108.655 54.11 110.588 58.1609 110.209Z" fill="#B0B0B0"/>
<path d="M63.3538 90.5361C63.3538 90.5361 55.3698 101.312 54.4001 103.032C53.4304 104.753 53.376 106.427 55.3698 107.397C57.4813 108.428 59.4388 107.125 60.5988 105.42C61.487 104.116 71.7366 91.1272 71.7366 91.1272L63.3538 90.5361Z" fill="#2F2F2F"/>
<path d="M61.1787 82.147C61.1787 82.147 60.218 82.147 59.1215 82.2834C58.0249 82.4274 57.7168 82.5031 57.7168 82.5031L59.2393 90.3996L67.0059 94.1431C67.0059 94.1431 70.7305 96.0377 73.8118 98.493C74.5912 99.1144 75.7874 98.6597 75.7059 98.3793C75.6243 98.0989 67.604 83.1321 67.604 83.1321L61.1787 82.147Z" fill="#FC8F02"/>
<path d="M44.8935 92.5136C45.4825 93.2563 49.9957 91.7937 57.2729 92.0362C62.6016 92.2181 67.1238 94.2263 67.1238 94.2263C67.1238 94.2263 64.106 89.0125 62.1122 86.6103C59.62 83.6018 57.735 82.5029 57.735 82.5029C57.735 82.5029 54.0194 82.95 49.5879 85.951C46.2982 88.1789 44.1957 91.6346 44.8935 92.5136Z" fill="#FFA726"/>
<path d="M49.461 88.6644C50.1407 89.4298 52.4244 87.755 54.5178 87.0578C56.6113 86.3606 58.2697 86.3909 58.75 85.7089C59.2303 85.0193 59.2757 83.6704 57.1369 83.7007C53.7747 83.7689 48.4641 87.5352 49.461 88.6644Z" fill="#FAD91A"/>
<path d="M79.2947 52.6606C79.186 52.9713 76.5579 57.9502 76.5579 57.9502L80.2191 63.5353L85.0404 60.1099L86.7713 56.0026L79.2947 52.6606Z" fill="#5E636F"/>
<path d="M82.8743 55.2976C82.8743 55.2976 86.1458 56.8814 86.7711 56.5783C87.3965 56.2752 89.1636 52.1299 89.934 51.9935C91.4111 51.7283 93.6405 51.1675 94.148 48.9092C94.9365 45.4309 91.8824 45.4688 91.8824 45.4688L82.9196 47.4542L82.8743 55.2976Z" fill="#FC8F0B"/>
<path d="M83.3999 40.1869C82.403 39.8308 71.1746 40.3612 69.5434 40.6719C67.9121 40.9826 67.9121 43.006 67.9121 43.006L70.5493 51.2889C70.5493 51.2889 71.5009 51.6451 72.978 51.6451C74.0293 51.6451 74.8268 51.9103 75.4521 52.1755C76.0865 52.4408 82.8834 55.3053 82.8834 55.3053L87.8405 47.856L93.6405 46.3555C93.6405 46.3555 93.1149 45.3855 91.0577 44.9005C89.0005 44.4155 87.2605 43.8017 86.2093 42.6953C85.1399 41.5965 84.4059 40.5355 83.3999 40.1869Z" fill="#FCB90A"/>
<path d="M80.9259 41.9448C81.1524 42.6723 79.7659 43.7105 78.0259 44.5896C76.2859 45.4686 73.9115 46.3098 73.1774 45.12C72.4434 43.9303 71.4646 41.8311 72.9146 41.5507C74.4915 41.24 80.5543 40.755 80.9259 41.9448Z" fill="#FED519"/>
<path d="M68.3834 41.3767C67.4318 41.4676 65.6918 43.5137 66.8065 47.1057C67.9121 50.675 70.0055 51.6981 71.4465 51.3343C73.1865 50.8948 72.7605 48.5153 71.8724 45.5143C71.1655 43.203 69.4346 41.2782 68.3834 41.3767Z" fill="#DEDFE2"/>
<path d="M103.274 45.9615C103.274 45.9615 90.8402 46.007 89.6259 46.0524C88.4115 46.0979 87.2515 47.1134 87.469 48.3031C87.6774 49.4929 88.5746 50.1977 89.8434 50.1977C91.1121 50.1977 102.757 50.1067 102.757 50.1067C102.757 50.1067 104.126 49.5763 104.126 47.7272C104.117 46.1813 103.274 45.9615 103.274 45.9615ZM88.5112 39.4367L88.4024 44.2413C88.4024 44.2413 88.1396 45.7038 86.8256 45.7417C85.0312 45.7872 84.9768 44.1579 84.9768 44.1579C84.9768 44.1579 85.0312 36.7162 85.0312 36.3145C85.0312 35.2157 86.0824 33.2302 87.6684 31.6843C89.2543 30.1384 90.6227 29.2138 91.8824 29.6988C93.1512 30.1838 93.3596 32.6088 93.3052 34.852C93.2509 37.1405 93.0334 39.8535 91.9368 40.187C90.4687 40.6265 88.5112 39.4367 88.5112 39.4367Z" fill="#464C4F"/>
<path d="M138.228 75.8497C138.228 75.8497 143.076 74.8267 143.874 75.0237C144.671 75.2208 145.487 76.5166 145.995 78.252C146.466 79.8662 146.946 81.9047 146.701 82.1472C146.23 82.617 144.3 82.8974 144.3 82.8974C144.3 82.8974 138.418 78.6915 138.328 78.449C138.237 78.2065 138.228 75.8497 138.228 75.8497Z" fill="#FF281D"/>
<path d="M78.4973 56.6089C78.4973 56.6089 83.672 58.6398 84.397 58.9733C85.122 59.3143 85.6929 59.8523 85.122 61.0042C84.5601 62.1561 80.9985 71.4165 80.4366 74.5236C79.8748 77.6306 80.192 81.0787 80.192 81.0787L69.1991 83.1096L67.2598 79.3887L78.4973 56.6089Z" fill="#FC8F0B"/>
<path d="M70.0872 80.874L80.1918 81.0786C80.1918 81.0786 80.4275 83.8219 82.0497 87.0957C83.2459 89.4979 85.575 93.3552 87.3875 94.3252C88.1397 94.7344 90.7043 95.3407 93.3687 95.3407C95.7159 95.3407 97.5647 94.7799 98.8697 94.1054C100.356 93.3325 101.045 92.5671 101.045 92.5671L111.312 91.347L110.18 102.767L85.1218 102.835L71.6187 91.544L70.0872 80.874Z" fill="#5F6364"/>
<path d="M105.766 73.9245C104.226 74.1367 100.637 76.6451 100.637 76.6451L101.308 79.1837L129.7 84.6855L148.224 87.1408C148.224 87.1408 145.297 81.927 141.427 78.0167C138.237 74.7884 135.972 73.5835 135.972 73.5835L105.766 73.9245Z" fill="#FE8D00"/>
<path d="M76.6394 55.8203C76.6394 55.8203 79.3037 56.8888 79.9653 57.2071C80.9622 57.6921 80.1919 59.8064 79.34 61.0113C78.4881 62.2162 74.8631 66.5737 72.9419 71.4995C71.4284 75.3719 71.7728 81.3813 72.2803 83.7154C72.7334 85.807 77.5909 93.673 79.8113 96.5224C82.2581 99.6673 84.5328 100.41 86.5719 100.751C89.8706 101.304 101.027 100.895 104.498 100.327C107.968 99.7583 109.228 97.9926 106.528 95.9465C103.818 93.8928 101.063 92.5742 101.063 92.5742C101.063 92.5742 103.41 89.8537 103.057 87.2468C102.803 85.3371 101.298 79.1837 101.298 79.1837L116.324 79.0473L129.175 78.5547L140.367 80.8281C140.367 80.8281 144.028 82.0103 147.146 85.6251C149.52 88.3759 150.653 91.2102 150.907 92.0589C151.16 92.9077 152.438 95.992 150.58 96.3481C148.723 96.7043 122.378 98.5458 120.176 98.8262C117.973 99.1066 115.11 98.758 114.04 101.107C112.944 103.532 113.279 105.7 107.95 105.844C102.622 105.987 85.8197 107.518 81.3881 104.813C77.6997 102.57 72.7787 98.273 67.7944 91.1344C62.81 83.9958 60.5625 82.1619 60.5625 82.1619L61.0338 77.9181L69.0631 63.0726L75.9959 56.3584L76.6394 55.8203Z" fill="#FDB700"/>
<path d="M74.7363 55.1309C74.2288 54.9869 68.0663 60.14 64.5772 66.0358C59.9281 73.8867 60.5444 82.1772 60.5444 82.1772C60.5444 82.1772 62.9641 80.8813 63.8975 79.3278C64.831 77.7743 67.3685 71.1283 67.3685 71.1283C67.3685 71.1283 69.7338 66.8163 73.4585 61.936C75.2981 59.5186 78.47 56.7147 78.0078 56.404C77.5094 56.063 74.7363 55.1309 74.7363 55.1309ZM111.92 96.2195C112.88 95.7648 108.983 89.043 113.361 84.4128C117.167 80.3812 123.166 79.8886 129.428 80.1008C134.603 80.2751 141.772 81.4421 141.772 81.4421C141.772 81.4421 132.048 74.7279 116.741 77.1302C105.087 78.9641 104.987 86.671 106.256 89.9978C107.615 93.5444 111.331 96.4999 111.92 96.2195Z" fill="#FED519"/>
<path d="M98.0541 75.2963C98.1356 76.2133 98.2444 76.9408 100.256 76.9256C102.259 76.9105 110.316 76.6453 119.867 76.4331C129.419 76.2209 132.718 76.0087 134.413 75.5161C136.107 75.0235 136.778 74.387 136.95 72.8259C137.122 71.2724 136.95 67.8092 136.524 66.6042C136.098 65.3993 135.174 65.0507 132.972 64.9749C130.933 64.9067 124.77 64.9067 123.837 64.9067C121.888 64.9067 115.3 68.5821 114.367 68.7261C113.433 68.8701 110.225 69.0065 106.5 69.0065C103.455 69.0065 100.755 68.8625 100.075 68.7943C99.3953 68.7261 97.8728 69.1353 97.8728 70.56C97.8909 72.3257 97.9906 74.5537 98.0541 75.2963Z" fill="#464C4F"/>
<path d="M67.9484 71.1283C66.6615 70.6054 64.2509 71.9619 62.964 75.713C61.7587 79.2217 63.3355 81.0329 64.4593 80.8586C65.5649 80.6843 65.5377 77.6227 66.6252 75.5766C67.7037 73.5305 69.1084 71.5981 67.9484 71.1283Z" fill="white"/>
</g>
<defs>
<clipPath id="clip0_178_10">
<rect width="189" height="146" fill="white"/>
</clipPath>
</defs>
</svg>
