<svg width="525" height="56" viewBox="0 0 525 56" fill="none" xmlns="http://www.w3.org/2000/svg">
<rect x="1" y="1" width="523" height="54" rx="27" fill="white"/>
<rect x="1" y="1" width="523" height="54" rx="27" stroke="#04702C" stroke-width="2"/>
<path d="M213.732 36V20.7273H219.579C220.682 20.7273 221.6 20.9013 222.33 21.2493C223.066 21.5923 223.616 22.0621 223.978 22.6587C224.346 23.2553 224.53 23.9315 224.53 24.6871C224.53 25.3086 224.411 25.8406 224.172 26.283C223.934 26.7205 223.613 27.076 223.21 27.3494C222.808 27.6229 222.358 27.8192 221.861 27.9386V28.0877C222.402 28.1175 222.922 28.2841 223.419 28.5874C223.921 28.8857 224.331 29.3082 224.65 29.8551C224.968 30.402 225.127 31.0632 225.127 31.8388C225.127 32.6293 224.935 33.3402 224.553 33.9716C224.17 34.598 223.593 35.0927 222.823 35.4556C222.052 35.8185 221.082 36 219.914 36H213.732ZM216.499 33.6882H219.474C220.478 33.6882 221.202 33.4968 221.644 33.114C222.092 32.7262 222.315 32.229 222.315 31.6225C222.315 31.1701 222.204 30.7624 221.98 30.3995C221.756 30.0316 221.438 29.7433 221.025 29.5344C220.613 29.3207 220.12 29.2138 219.549 29.2138H216.499V33.6882ZM216.499 27.2227H219.236C219.713 27.2227 220.143 27.1357 220.526 26.9616C220.908 26.7827 221.209 26.5316 221.428 26.2085C221.652 25.8803 221.764 25.4925 221.764 25.0451C221.764 24.4535 221.555 23.9663 221.137 23.5835C220.725 23.2006 220.111 23.0092 219.295 23.0092H216.499V27.2227ZM234.715 31.1825V24.5455H237.415V36H234.797V33.9641H234.678C234.419 34.6055 233.994 35.13 233.403 35.5376C232.816 35.9453 232.093 36.1491 231.233 36.1491C230.482 36.1491 229.818 35.9826 229.241 35.6495C228.67 35.3114 228.222 34.8217 227.899 34.1804C227.576 33.5341 227.414 32.7536 227.414 31.8388V24.5455H230.114V31.4212C230.114 32.147 230.313 32.7237 230.711 33.1513C231.108 33.5788 231.63 33.7926 232.277 33.7926C232.674 33.7926 233.06 33.6957 233.433 33.5018C233.805 33.3079 234.111 33.0195 234.35 32.6367C234.593 32.2489 234.715 31.7642 234.715 31.1825ZM243.487 36.2312C242.761 36.2312 242.107 36.1019 241.526 35.8434C240.949 35.5799 240.492 35.1921 240.153 34.68C239.82 34.168 239.654 33.5366 239.654 32.7859C239.654 32.1396 239.773 31.6051 240.012 31.1825C240.25 30.7599 240.576 30.4219 240.989 30.1683C241.401 29.9148 241.866 29.7234 242.383 29.5941C242.905 29.4599 243.445 29.3629 244.002 29.3033C244.673 29.2337 245.217 29.1715 245.635 29.1168C246.052 29.0572 246.356 28.9677 246.544 28.8484C246.738 28.7241 246.835 28.5327 246.835 28.2741V28.2294C246.835 27.6676 246.669 27.2326 246.336 26.9244C246.003 26.6161 245.523 26.462 244.896 26.462C244.235 26.462 243.711 26.6062 243.323 26.8945C242.94 27.1829 242.682 27.5234 242.547 27.9162L240.027 27.5582C240.226 26.8622 240.554 26.2805 241.011 25.8132C241.468 25.3409 242.028 24.9879 242.689 24.7543C243.35 24.5156 244.081 24.3963 244.881 24.3963C245.433 24.3963 245.983 24.4609 246.53 24.5902C247.076 24.7195 247.576 24.9332 248.028 25.2315C248.481 25.5249 248.844 25.9251 249.117 26.4322C249.396 26.9393 249.535 27.5732 249.535 28.3338V36H246.94V34.4265H246.85C246.686 34.7447 246.455 35.043 246.157 35.3214C245.863 35.5948 245.493 35.8161 245.046 35.9851C244.603 36.1491 244.084 36.2312 243.487 36.2312ZM244.188 34.2475C244.73 34.2475 245.2 34.1406 245.597 33.9268C245.995 33.7081 246.301 33.4197 246.515 33.0618C246.733 32.7038 246.843 32.3136 246.843 31.891V30.5412C246.758 30.6108 246.614 30.6754 246.41 30.7351C246.211 30.7947 245.988 30.8469 245.739 30.8917C245.491 30.9364 245.244 30.9762 245.001 31.011C244.757 31.0458 244.546 31.0756 244.367 31.1005C243.964 31.1552 243.604 31.2447 243.286 31.369C242.967 31.4933 242.716 31.6673 242.532 31.891C242.348 32.1097 242.256 32.3931 242.256 32.7411C242.256 33.2383 242.438 33.6136 242.801 33.8672C243.164 34.1207 243.626 34.2475 244.188 34.2475ZM257.969 24.5455V26.6335H251.384V24.5455H257.969ZM253.01 21.8011H255.71V32.5547C255.71 32.9176 255.764 33.196 255.874 33.3899C255.988 33.5788 256.137 33.7081 256.321 33.7777C256.505 33.8473 256.709 33.8821 256.933 33.8821C257.102 33.8821 257.256 33.8697 257.395 33.8448C257.539 33.82 257.649 33.7976 257.723 33.7777L258.178 35.8881C258.034 35.9379 257.828 35.9925 257.559 36.0522C257.296 36.1119 256.972 36.1467 256.59 36.1566C255.913 36.1765 255.304 36.0746 254.763 35.8509C254.221 35.6222 253.791 35.2692 253.472 34.7919C253.159 34.3146 253.005 33.718 253.01 33.0021V21.8011ZM267.517 36H264.563L269.94 20.7273H273.356L278.74 36H275.787L271.708 23.8594H271.588L267.517 36ZM267.613 30.0117H275.667V32.234H267.613V30.0117ZM283.093 32.4055L283.086 29.1467H283.518L287.635 24.5455H290.789L285.726 30.1832H285.166L283.093 32.4055ZM280.632 36V20.7273H283.332V36H280.632ZM287.821 36L284.092 30.7873L285.912 28.8857L291.05 36H287.821ZM299.889 31.1825V24.5455H302.589V36H299.971V33.9641H299.852C299.593 34.6055 299.168 35.13 298.577 35.5376C297.99 35.9453 297.267 36.1491 296.406 36.1491C295.656 36.1491 294.992 35.9826 294.415 35.6495C293.844 35.3114 293.396 34.8217 293.073 34.1804C292.75 33.5341 292.588 32.7536 292.588 31.8388V24.5455H295.288V31.4212C295.288 32.147 295.487 32.7237 295.884 33.1513C296.282 33.5788 296.804 33.7926 297.45 33.7926C297.848 33.7926 298.233 33.6957 298.606 33.5018C298.979 33.3079 299.285 33.0195 299.524 32.6367C299.767 32.2489 299.889 31.7642 299.889 31.1825ZM308.064 29.2884V36H305.365V24.5455H307.945V26.4918H308.079C308.343 25.8505 308.763 25.3409 309.339 24.9631C309.921 24.5852 310.639 24.3963 311.495 24.3963C312.285 24.3963 312.974 24.5653 313.56 24.9034C314.152 25.2415 314.609 25.7312 314.932 26.3725C315.261 27.0138 315.422 27.7919 315.417 28.7067V36H312.718V29.1243C312.718 28.3587 312.519 27.7596 312.121 27.3271C311.728 26.8945 311.184 26.6783 310.488 26.6783C310.016 26.6783 309.595 26.7827 309.228 26.9915C308.865 27.1953 308.579 27.4911 308.37 27.8789C308.166 28.2667 308.064 28.7365 308.064 29.2884Z" fill="#04702C"/>
</svg>
