<svg width="525" height="56" viewBox="0 0 525 56" fill="none" xmlns="http://www.w3.org/2000/svg">
<rect x="1" y="1" width="523" height="54" rx="27" fill="white"/>
<rect x="1" y="1" width="523" height="54" rx="27" stroke="#04702C" stroke-width="2"/>
<path d="M237.972 36V20.7273H240.739V33.6808H247.465V36H237.972ZM254.744 36.2237C253.625 36.2237 252.656 35.9776 251.835 35.4854C251.015 34.9933 250.379 34.3047 249.926 33.4197C249.479 32.5348 249.255 31.5007 249.255 30.3175C249.255 29.1342 249.479 28.0977 249.926 27.2077C250.379 26.3178 251.015 25.6268 251.835 25.1346C252.656 24.6424 253.625 24.3963 254.744 24.3963C255.862 24.3963 256.832 24.6424 257.652 25.1346C258.473 25.6268 259.106 26.3178 259.554 27.2077C260.006 28.0977 260.233 29.1342 260.233 30.3175C260.233 31.5007 260.006 32.5348 259.554 33.4197C259.106 34.3047 258.473 34.9933 257.652 35.4854C256.832 35.9776 255.862 36.2237 254.744 36.2237ZM254.759 34.0611C255.365 34.0611 255.872 33.8945 256.28 33.5614C256.688 33.2234 256.991 32.771 257.19 32.2042C257.394 31.6374 257.496 31.006 257.496 30.31C257.496 29.609 257.394 28.9751 257.19 28.4084C256.991 27.8366 256.688 27.3817 256.28 27.0437C255.872 26.7056 255.365 26.5366 254.759 26.5366C254.137 26.5366 253.62 26.7056 253.208 27.0437C252.8 27.3817 252.494 27.8366 252.29 28.4084C252.092 28.9751 251.992 29.609 251.992 30.31C251.992 31.006 252.092 31.6374 252.29 32.2042C252.494 32.771 252.8 33.2234 253.208 33.5614C253.62 33.8945 254.137 34.0611 254.759 34.0611ZM267.505 40.5341C266.536 40.5341 265.703 40.4023 265.007 40.1388C264.311 39.8803 263.752 39.5323 263.329 39.0948C262.907 38.6573 262.613 38.1726 262.449 37.6406L264.88 37.0515C264.99 37.2752 265.149 37.4964 265.358 37.7152C265.566 37.9389 265.847 38.1229 266.2 38.267C266.558 38.4162 267.008 38.4908 267.55 38.4908C268.316 38.4908 268.95 38.3043 269.452 37.9315C269.954 37.5636 270.205 36.957 270.205 36.1119V33.9418H270.071C269.931 34.2202 269.728 34.506 269.459 34.7994C269.196 35.0927 268.845 35.3388 268.408 35.5376C267.975 35.7365 267.431 35.8359 266.775 35.8359C265.895 35.8359 265.097 35.6296 264.381 35.217C263.67 34.7994 263.103 34.1779 262.68 33.3526C262.263 32.5224 262.054 31.4833 262.054 30.2354C262.054 28.9776 262.263 27.9162 262.68 27.0511C263.103 26.1811 263.672 25.5224 264.388 25.0749C265.104 24.6225 265.902 24.3963 266.782 24.3963C267.453 24.3963 268.005 24.5107 268.438 24.7393C268.875 24.9631 269.223 25.234 269.482 25.5522C269.74 25.8654 269.936 26.1612 270.071 26.4396H270.22V24.5455H272.882V36.1864C272.882 37.1658 272.648 37.9762 272.181 38.6175C271.714 39.2589 271.075 39.7386 270.265 40.0568C269.454 40.375 268.534 40.5341 267.505 40.5341ZM267.528 33.718C268.099 33.718 268.587 33.5788 268.989 33.3004C269.392 33.022 269.698 32.6218 269.907 32.0998C270.115 31.5778 270.22 30.9513 270.22 30.2205C270.22 29.4996 270.115 28.8683 269.907 28.3263C269.703 27.7844 269.4 27.3643 268.997 27.0661C268.599 26.7628 268.109 26.6112 267.528 26.6112C266.926 26.6112 266.424 26.7678 266.021 27.081C265.619 27.3942 265.315 27.8242 265.112 28.3711C264.908 28.913 264.806 29.5295 264.806 30.2205C264.806 30.9215 264.908 31.5355 265.112 32.0625C265.32 32.5845 265.626 32.9922 266.029 33.2855C266.436 33.5739 266.936 33.718 267.528 33.718ZM275.649 36V24.5455H278.348V36H275.649ZM277.006 22.9197C276.578 22.9197 276.211 22.7781 275.902 22.4947C275.594 22.2063 275.44 21.8608 275.44 21.4581C275.44 21.0504 275.594 20.7049 275.902 20.4215C276.211 20.1332 276.578 19.989 277.006 19.989C277.439 19.989 277.806 20.1332 278.11 20.4215C278.418 20.7049 278.572 21.0504 278.572 21.4581C278.572 21.8608 278.418 22.2063 278.11 22.4947C277.806 22.7781 277.439 22.9197 277.006 22.9197ZM283.824 29.2884V36H281.124V24.5455H283.705V26.4918H283.839C284.102 25.8505 284.522 25.3409 285.099 24.9631C285.681 24.5852 286.399 24.3963 287.254 24.3963C288.045 24.3963 288.733 24.5653 289.32 24.9034C289.912 25.2415 290.369 25.7312 290.692 26.3725C291.02 27.0138 291.182 27.7919 291.177 28.7067V36H288.477V29.1243C288.477 28.3587 288.278 27.7596 287.881 27.3271C287.488 26.8945 286.944 26.6783 286.248 26.6783C285.775 26.6783 285.355 26.7827 284.987 26.9915C284.624 27.1953 284.339 27.4911 284.13 27.8789C283.926 28.2667 283.824 28.7365 283.824 29.2884Z" fill="#04702C"/>
</svg>
