<svg width="1440" height="58" viewBox="0 0 1440 58" fill="none" xmlns="http://www.w3.org/2000/svg">
<rect x="-25" width="1567" height="58" rx="20" fill="#709778"/>
<path d="M49.032 38.448C49.208 38.448 49.376 38.52 49.536 38.664C49.696 38.808 49.776 39.04 49.776 39.36C49.776 39.616 49.584 39.92 49.2 40.272C48.816 40.608 48.32 40.936 47.712 41.256C47.12 41.576 46.48 41.84 45.792 42.048C45.104 42.272 44.456 42.384 43.848 42.384C42.984 42.384 42.168 42.16 41.4 41.712C40.648 41.264 40.032 40.616 39.552 39.768C39.072 38.904 38.832 37.856 38.832 36.624C38.832 35.536 39.032 34.448 39.432 33.36C39.832 32.272 40.36 31.224 41.016 30.216C41.688 29.208 42.424 28.272 43.224 27.408C44.04 26.544 44.856 25.792 45.672 25.152C46.488 24.512 47.248 24.016 47.952 23.664C48.672 23.296 49.264 23.112 49.728 23.112C50.048 23.112 50.304 23.232 50.496 23.472C50.704 23.696 50.808 23.944 50.808 24.216C50.808 24.376 50.76 24.536 50.664 24.696C50.584 24.856 50.44 24.984 50.232 25.08C49.192 25.592 48.136 26.248 47.064 27.048C45.992 27.848 45 28.76 44.088 29.784C43.176 30.792 42.44 31.888 41.88 33.072C41.32 34.24 41.04 35.472 41.04 36.768C41.04 37.888 41.304 38.744 41.832 39.336C42.36 39.912 43.08 40.2 43.992 40.2C44.472 40.2 44.968 40.112 45.48 39.936C46.008 39.76 46.504 39.56 46.968 39.336C47.448 39.096 47.864 38.888 48.216 38.712C48.584 38.536 48.856 38.448 49.032 38.448ZM57.3141 42.504C57.0581 42.504 56.8501 42.416 56.6901 42.24C56.5301 42.064 56.4501 41.752 56.4501 41.304C56.4501 40.968 56.5541 40.424 56.7621 39.672C56.9861 38.904 57.2821 38.008 57.6501 36.984C58.0341 35.96 58.4581 34.88 58.9221 33.744C59.4021 32.592 59.8981 31.448 60.4101 30.312C60.9221 29.176 61.4261 28.128 61.9221 27.168C62.4181 26.192 62.8741 25.368 63.2901 24.696C63.7061 24.024 64.0581 23.584 64.3461 23.376C64.6821 23.136 64.9941 23.016 65.2821 23.016C65.4421 23.016 65.6021 23.032 65.7621 23.064C65.9221 23.096 66.0581 23.152 66.1701 23.232C66.4581 23.408 66.7061 23.8 66.9141 24.408C67.1381 25 67.3301 25.728 67.4901 26.592C67.6501 27.44 67.7781 28.352 67.8741 29.328C67.9861 30.288 68.0821 31.24 68.1621 32.184C68.6421 32.12 69.0421 32.072 69.3621 32.04C69.6821 32.008 69.9141 31.992 70.0581 31.992C70.6021 31.992 70.9461 32.064 71.0901 32.208C71.2341 32.352 71.3141 32.52 71.3301 32.712C71.3621 33 71.2821 33.256 71.0901 33.48C70.8981 33.704 70.6261 33.872 70.2741 33.984C70.1621 34.016 69.9221 34.072 69.5541 34.152C69.2021 34.216 68.7781 34.296 68.2821 34.392C68.2981 34.872 68.3061 35.32 68.3061 35.736C68.3221 36.136 68.3301 36.48 68.3301 36.768C68.3301 38.224 68.2421 39.32 68.0661 40.056C67.8901 40.776 67.6741 41.264 67.4181 41.52C67.1621 41.776 66.9141 41.904 66.6741 41.904C66.3861 41.904 66.1861 41.824 66.0741 41.664C65.9621 41.488 65.9061 41.24 65.9061 40.92V39.216C65.9061 38.624 65.8981 37.952 65.8821 37.2C65.8821 36.432 65.8741 35.624 65.8581 34.776C64.9141 34.936 63.9541 35.088 62.9781 35.232C62.0181 35.376 61.1861 35.504 60.4821 35.616C60.1301 36.528 59.8261 37.352 59.5701 38.088C59.3141 38.808 59.1381 39.36 59.0421 39.744C58.8021 40.544 58.5861 41.144 58.3941 41.544C58.2021 41.928 58.0181 42.184 57.8421 42.312C57.6821 42.44 57.5061 42.504 57.3141 42.504ZM61.2981 33.48C62.1301 33.288 62.9221 33.112 63.6741 32.952C64.4421 32.792 65.1461 32.656 65.7861 32.544C65.7381 31.104 65.6501 29.728 65.5221 28.416C65.4101 27.088 65.2421 26.04 65.0181 25.272C64.7141 25.8 64.3541 26.504 63.9381 27.384C63.5221 28.264 63.0821 29.24 62.6181 30.312C62.1701 31.368 61.7301 32.424 61.2981 33.48ZM78.7356 41.736C78.5116 41.736 78.3036 41.672 78.1116 41.544C77.9356 41.416 77.7996 41.16 77.7036 40.776C77.6076 40.376 77.5596 39.792 77.5596 39.024C77.5596 37.424 77.7116 35.84 78.0156 34.272C78.3196 32.704 78.7516 31.232 79.3116 29.856C79.8716 28.464 80.5356 27.24 81.3036 26.184C82.0876 25.112 82.9516 24.272 83.8956 23.664C84.8556 23.056 85.8716 22.752 86.9436 22.752C88.1116 22.752 89.0316 23.112 89.7036 23.832C90.3756 24.536 90.7116 25.544 90.7116 26.856C90.7116 28.072 90.3676 29.08 89.6796 29.88C89.0076 30.68 88.0716 31.08 86.8716 31.08C86.6636 31.08 86.4396 31.064 86.1996 31.032C85.9596 30.984 85.7116 30.92 85.4556 30.84C86.4316 32.472 87.4076 33.888 88.3836 35.088C89.3596 36.288 90.3516 37.368 91.3596 38.328C92.3836 39.272 93.4236 40.184 94.4796 41.064C94.6396 41.208 94.7596 41.352 94.8396 41.496C94.9196 41.624 94.9596 41.776 94.9596 41.952C94.9596 42.224 94.8956 42.424 94.7676 42.552C94.6556 42.68 94.4156 42.744 94.0476 42.744C93.6476 42.744 93.1516 42.568 92.5596 42.216C91.9836 41.864 91.3516 41.384 90.6636 40.776C89.9756 40.168 89.2796 39.48 88.5756 38.712C87.8716 37.944 87.1916 37.144 86.5356 36.312C85.8956 35.464 85.3196 34.64 84.8076 33.84C84.2956 33.024 83.8876 32.272 83.5836 31.584C83.2956 30.896 83.1516 30.312 83.1516 29.832C83.1516 29.512 83.2316 29.264 83.3916 29.088C83.5516 28.896 83.7676 28.8 84.0396 28.8C84.3916 28.8 84.7116 28.848 84.9996 28.944C85.3036 29.04 85.6236 29.088 85.9596 29.088C86.8396 29.088 87.5356 28.864 88.0476 28.416C88.5756 27.952 88.8396 27.192 88.8396 26.136C88.8396 25.208 88.2156 24.744 86.9676 24.744C86.1036 24.744 85.2716 25.088 84.4716 25.776C83.6716 26.448 82.9356 27.416 82.2636 28.68C81.6076 29.944 81.0636 31.464 80.6316 33.24C80.1996 35 79.9196 36.968 79.7916 39.144C79.7596 39.896 79.6876 40.456 79.5756 40.824C79.4796 41.192 79.3596 41.44 79.2156 41.568C79.0876 41.68 78.9276 41.736 78.7356 41.736ZM104.265 42.72C103.737 42.72 103.305 42.64 102.969 42.48C102.633 42.32 102.385 42.136 102.225 41.928C102.081 41.72 102.009 41.552 102.009 41.424C102.009 41.04 102.105 40.776 102.297 40.632C102.489 40.488 102.889 40.416 103.497 40.416C103.849 40.416 104.337 40.352 104.961 40.224C105.601 40.08 106.305 39.88 107.073 39.624C107.841 39.352 108.625 39.024 109.425 38.64C110.225 38.256 110.969 37.816 111.657 37.32C112.345 36.824 112.921 36.28 113.385 35.688C113.865 35.08 114.169 34.432 114.297 33.744C113.833 33.648 113.361 33.584 112.881 33.552C112.417 33.504 111.953 33.48 111.489 33.48C110.081 33.48 108.649 33.632 107.193 33.936C105.737 34.224 104.265 34.552 102.777 34.92C102.729 35.368 102.689 35.776 102.657 36.144C102.625 36.512 102.601 36.904 102.585 37.32C102.537 38.344 102.417 39.024 102.225 39.36C102.049 39.68 101.849 39.84 101.625 39.84C101.273 39.84 101.001 39.632 100.809 39.216C100.617 38.8 100.521 38.136 100.521 37.224C100.521 34.312 100.809 31.8 101.385 29.688C101.961 27.576 102.817 25.952 103.953 24.816C105.089 23.68 106.481 23.112 108.129 23.112C109.297 23.112 110.201 23.424 110.841 24.048C111.497 24.672 111.825 25.576 111.825 26.76C111.825 27.576 111.681 28.424 111.393 29.304C111.105 30.168 110.681 30.96 110.121 31.68C110.553 31.6 110.977 31.544 111.393 31.512C111.809 31.464 112.193 31.44 112.545 31.44C113.761 31.44 114.705 31.64 115.377 32.04C116.049 32.44 116.385 33.032 116.385 33.816C116.385 34.728 116.129 35.584 115.617 36.384C115.121 37.184 114.457 37.912 113.625 38.568C112.809 39.224 111.921 39.816 110.961 40.344C110.001 40.856 109.065 41.288 108.153 41.64C107.241 41.992 106.433 42.256 105.729 42.432C105.041 42.624 104.553 42.72 104.265 42.72ZM102.993 32.856C104.769 32.536 106.145 32.112 107.121 31.584C108.097 31.056 108.777 30.44 109.161 29.736C109.545 29.016 109.737 28.208 109.737 27.312C109.737 27.024 109.689 26.728 109.593 26.424C109.497 26.104 109.313 25.832 109.041 25.608C108.769 25.384 108.377 25.272 107.865 25.272C106.553 25.272 105.497 25.872 104.697 27.072C103.913 28.272 103.345 30.2 102.993 32.856ZM127.909 42.432C126.757 42.432 125.741 42.112 124.861 41.472C123.997 40.832 123.317 39.952 122.821 38.832C122.341 37.712 122.101 36.432 122.101 34.992C122.101 34.24 122.213 33.504 122.437 32.784C122.677 32.048 122.973 31.36 123.325 30.72C123.677 30.064 124.037 29.48 124.405 28.968C124.277 28.776 124.213 28.48 124.213 28.08C124.213 27.68 124.381 27.232 124.717 26.736C125.053 26.24 125.517 25.76 126.109 25.296C126.701 24.832 127.389 24.448 128.173 24.144C128.957 23.84 129.789 23.688 130.669 23.688C132.125 23.688 133.357 24 134.365 24.624C135.373 25.248 136.133 26.072 136.645 27.096C137.173 28.104 137.437 29.208 137.437 30.408C137.437 32.136 137.165 33.728 136.621 35.184C136.077 36.64 135.341 37.912 134.413 39C133.501 40.088 132.477 40.936 131.341 41.544C130.221 42.136 129.077 42.432 127.909 42.432ZM127.549 27C127.613 27.08 127.645 27.16 127.645 27.24C127.645 27.352 127.605 27.464 127.525 27.576C127.461 27.688 127.381 27.816 127.285 27.96C126.981 28.344 126.653 28.848 126.301 29.472C125.965 30.096 125.645 30.784 125.341 31.536C125.053 32.288 124.813 33.064 124.621 33.864C124.429 34.648 124.333 35.4 124.333 36.12C124.333 37.352 124.613 38.352 125.173 39.12C125.733 39.872 126.565 40.248 127.669 40.248C128.501 40.248 129.293 40.048 130.045 39.648C130.813 39.248 131.509 38.712 132.133 38.04C132.773 37.352 133.325 36.592 133.789 35.76C134.253 34.912 134.613 34.04 134.869 33.144C135.125 32.248 135.253 31.392 135.253 30.576C135.253 29.728 135.085 28.936 134.749 28.2C134.413 27.464 133.925 26.872 133.285 26.424C132.645 25.976 131.869 25.752 130.957 25.752C130.189 25.752 129.525 25.88 128.965 26.136C128.421 26.376 127.949 26.664 127.549 27ZM154.046 43.44C153.694 43.44 153.398 43.304 153.158 43.032C152.934 42.76 152.822 42.312 152.822 41.688C152.822 41.48 152.846 41.256 152.894 41.016C152.942 40.76 153.03 40.504 153.158 40.248C152.358 38.264 151.686 36.336 151.142 34.464C150.598 32.592 150.134 30.632 149.75 28.584C149.238 29.64 148.75 30.736 148.286 31.872C147.838 32.992 147.414 34.088 147.014 35.16C146.614 36.232 146.254 37.232 145.934 38.16C145.614 39.088 145.334 39.888 145.094 40.56C144.838 41.36 144.582 41.896 144.326 42.168C144.07 42.456 143.806 42.6 143.534 42.6C143.166 42.6 142.886 42.512 142.694 42.336C142.518 42.16 142.43 41.848 142.43 41.4C142.43 41.064 142.518 40.544 142.694 39.84C142.87 39.136 143.11 38.32 143.414 37.392C143.734 36.464 144.094 35.488 144.494 34.464C144.894 33.44 145.318 32.44 145.766 31.464C146.23 30.488 146.694 29.608 147.158 28.824C147.622 28.024 148.062 27.392 148.478 26.928C148.91 26.448 149.302 26.208 149.654 26.208C150.022 26.208 150.334 26.28 150.59 26.424C150.862 26.568 151.158 26.944 151.478 27.552C151.686 27.968 151.926 28.576 152.198 29.376C152.47 30.16 152.742 31.048 153.014 32.04C153.286 33.016 153.55 34.024 153.806 35.064C154.062 36.088 154.286 37.04 154.478 37.92C155.118 34.96 155.678 32.368 156.158 30.144C156.638 27.904 157.006 26.152 157.262 24.888C157.534 23.624 157.678 22.96 157.694 22.896C157.79 22.48 157.894 22.224 158.006 22.128C158.118 22.032 158.278 21.984 158.486 21.984C158.774 21.984 159.054 22.104 159.326 22.344C159.614 22.568 159.758 22.88 159.758 23.28C159.758 23.472 159.71 23.912 159.614 24.6C159.534 25.288 159.406 26.152 159.23 27.192C159.07 28.216 158.862 29.36 158.606 30.624C158.35 31.872 158.054 33.176 157.718 34.536C157.382 35.88 157.006 37.216 156.59 38.544C156.19 39.856 155.75 41.096 155.27 42.264C155.094 42.712 154.886 43.016 154.646 43.176C154.422 43.352 154.222 43.44 154.046 43.44ZM176.185 42.504C175.929 42.504 175.721 42.416 175.561 42.24C175.401 42.064 175.321 41.752 175.321 41.304C175.321 40.968 175.425 40.424 175.633 39.672C175.857 38.904 176.153 38.008 176.521 36.984C176.905 35.96 177.329 34.88 177.793 33.744C178.273 32.592 178.769 31.448 179.281 30.312C179.793 29.176 180.297 28.128 180.793 27.168C181.289 26.192 181.745 25.368 182.161 24.696C182.577 24.024 182.929 23.584 183.217 23.376C183.553 23.136 183.865 23.016 184.153 23.016C184.313 23.016 184.473 23.032 184.633 23.064C184.793 23.096 184.929 23.152 185.041 23.232C185.329 23.408 185.577 23.8 185.785 24.408C186.009 25 186.201 25.728 186.361 26.592C186.521 27.44 186.649 28.352 186.745 29.328C186.857 30.288 186.953 31.24 187.033 32.184C187.513 32.12 187.913 32.072 188.233 32.04C188.553 32.008 188.785 31.992 188.929 31.992C189.473 31.992 189.817 32.064 189.961 32.208C190.105 32.352 190.185 32.52 190.201 32.712C190.233 33 190.153 33.256 189.961 33.48C189.769 33.704 189.497 33.872 189.145 33.984C189.033 34.016 188.793 34.072 188.425 34.152C188.073 34.216 187.649 34.296 187.153 34.392C187.169 34.872 187.177 35.32 187.177 35.736C187.193 36.136 187.201 36.48 187.201 36.768C187.201 38.224 187.113 39.32 186.937 40.056C186.761 40.776 186.545 41.264 186.289 41.52C186.033 41.776 185.785 41.904 185.545 41.904C185.257 41.904 185.057 41.824 184.945 41.664C184.833 41.488 184.777 41.24 184.777 40.92V39.216C184.777 38.624 184.769 37.952 184.753 37.2C184.753 36.432 184.745 35.624 184.729 34.776C183.785 34.936 182.825 35.088 181.849 35.232C180.889 35.376 180.057 35.504 179.353 35.616C179.001 36.528 178.697 37.352 178.441 38.088C178.185 38.808 178.009 39.36 177.913 39.744C177.673 40.544 177.457 41.144 177.265 41.544C177.073 41.928 176.889 42.184 176.713 42.312C176.553 42.44 176.377 42.504 176.185 42.504ZM180.169 33.48C181.001 33.288 181.793 33.112 182.545 32.952C183.313 32.792 184.017 32.656 184.657 32.544C184.609 31.104 184.521 29.728 184.393 28.416C184.281 27.088 184.113 26.04 183.889 25.272C183.585 25.8 183.225 26.504 182.809 27.384C182.393 28.264 181.953 29.24 181.489 30.312C181.041 31.368 180.601 32.424 180.169 33.48ZM208.815 42.72C208.415 42.72 208.047 42.616 207.711 42.408C207.375 42.216 207.079 41.856 206.823 41.328C206.567 40.784 206.367 40.024 206.223 39.048C206.095 38.056 206.031 36.768 206.031 35.184C206.031 34.944 206.031 34.704 206.031 34.464C206.031 34.208 206.039 33.952 206.055 33.696C205.623 34.672 205.135 35.608 204.591 36.504C204.063 37.4 203.503 38.192 202.911 38.88C202.335 39.568 201.751 40.112 201.159 40.512C200.583 40.912 200.031 41.112 199.503 41.112C198.559 41.112 197.791 40.752 197.199 40.032C196.623 39.312 196.335 38.128 196.335 36.48C196.335 35.504 196.407 34.464 196.551 33.36C196.711 32.256 196.919 31.176 197.175 30.12C197.431 29.064 197.703 28.104 197.991 27.24C198.295 26.376 198.599 25.688 198.903 25.176C199.207 24.664 199.479 24.408 199.719 24.408C200.119 24.408 200.415 24.512 200.607 24.72C200.815 24.912 200.919 25.168 200.919 25.488C200.919 25.712 200.831 26.136 200.655 26.76C200.479 27.384 200.263 28.136 200.007 29.016C199.751 29.88 199.487 30.808 199.215 31.8C198.959 32.792 198.743 33.776 198.567 34.752C198.391 35.712 198.303 36.592 198.303 37.392C198.303 38.208 198.631 38.616 199.287 38.616C200.055 38.616 200.775 38.288 201.447 37.632C202.119 36.96 202.743 36.072 203.319 34.968C203.895 33.864 204.423 32.632 204.903 31.272C205.399 29.896 205.847 28.496 206.247 27.072C206.231 26.928 206.223 26.768 206.223 26.592C206.223 26.416 206.223 26.192 206.223 25.92C206.223 25.568 206.319 25.192 206.511 24.792C206.719 24.376 206.967 24.016 207.255 23.712C207.543 23.408 207.831 23.256 208.119 23.256C208.663 23.256 208.935 23.64 208.935 24.408C208.935 24.6 208.887 24.912 208.791 25.344C208.711 25.776 208.607 26.4 208.479 27.216C208.367 28.032 208.263 29.104 208.167 30.432C208.087 31.76 208.047 33.424 208.047 35.424C208.047 37.12 208.135 38.312 208.311 39C208.503 39.672 208.783 40.008 209.151 40.008C209.631 40.008 210.095 39.728 210.543 39.168C211.007 38.608 211.439 37.824 211.839 36.816C212.255 35.808 212.623 34.632 212.943 33.288C213.279 31.928 213.567 30.456 213.807 28.872C214.063 27.272 214.263 25.616 214.407 23.904C214.487 23.2 214.639 22.696 214.863 22.392C215.087 22.088 215.319 21.936 215.559 21.936C215.703 21.936 215.863 21.976 216.039 22.056C216.231 22.12 216.391 22.264 216.519 22.488C216.647 22.712 216.711 23.064 216.711 23.544C216.711 26.024 216.527 28.28 216.159 30.312C215.807 32.328 215.335 34.112 214.743 35.664C214.151 37.2 213.503 38.496 212.799 39.552C212.095 40.592 211.391 41.384 210.687 41.928C209.999 42.456 209.375 42.72 208.815 42.72ZM222.637 42.504C222.381 42.504 222.173 42.416 222.013 42.24C221.853 42.064 221.773 41.752 221.773 41.304C221.773 40.968 221.877 40.424 222.085 39.672C222.309 38.904 222.605 38.008 222.973 36.984C223.357 35.96 223.781 34.88 224.245 33.744C224.725 32.592 225.221 31.448 225.733 30.312C226.245 29.176 226.749 28.128 227.245 27.168C227.741 26.192 228.197 25.368 228.613 24.696C229.029 24.024 229.381 23.584 229.669 23.376C230.005 23.136 230.317 23.016 230.605 23.016C230.765 23.016 230.925 23.032 231.085 23.064C231.245 23.096 231.381 23.152 231.493 23.232C231.781 23.408 232.029 23.8 232.237 24.408C232.461 25 232.653 25.728 232.813 26.592C232.973 27.44 233.101 28.352 233.197 29.328C233.309 30.288 233.405 31.24 233.485 32.184C233.965 32.12 234.365 32.072 234.685 32.04C235.005 32.008 235.237 31.992 235.381 31.992C235.925 31.992 236.269 32.064 236.413 32.208C236.557 32.352 236.637 32.52 236.653 32.712C236.685 33 236.605 33.256 236.413 33.48C236.221 33.704 235.949 33.872 235.597 33.984C235.485 34.016 235.245 34.072 234.877 34.152C234.525 34.216 234.101 34.296 233.605 34.392C233.621 34.872 233.629 35.32 233.629 35.736C233.645 36.136 233.653 36.48 233.653 36.768C233.653 38.224 233.565 39.32 233.389 40.056C233.213 40.776 232.997 41.264 232.741 41.52C232.485 41.776 232.237 41.904 231.997 41.904C231.709 41.904 231.509 41.824 231.397 41.664C231.285 41.488 231.229 41.24 231.229 40.92V39.216C231.229 38.624 231.221 37.952 231.205 37.2C231.205 36.432 231.197 35.624 231.181 34.776C230.237 34.936 229.277 35.088 228.301 35.232C227.341 35.376 226.509 35.504 225.805 35.616C225.453 36.528 225.149 37.352 224.893 38.088C224.637 38.808 224.461 39.36 224.365 39.744C224.125 40.544 223.909 41.144 223.717 41.544C223.525 41.928 223.341 42.184 223.165 42.312C223.005 42.44 222.829 42.504 222.637 42.504ZM226.621 33.48C227.453 33.288 228.245 33.112 228.997 32.952C229.765 32.792 230.469 32.656 231.109 32.544C231.061 31.104 230.973 29.728 230.845 28.416C230.733 27.088 230.565 26.04 230.341 25.272C230.037 25.8 229.677 26.504 229.261 27.384C228.845 28.264 228.405 29.24 227.941 30.312C227.493 31.368 227.053 32.424 226.621 33.48ZM249.641 44.472C249.289 44.472 248.977 44.296 248.705 43.944C248.449 43.592 248.321 43.04 248.321 42.288C248.321 41.856 248.657 40.608 249.329 38.544C250.017 36.464 251.057 33.616 252.449 30C251.841 30.896 251.193 31.76 250.505 32.592C249.817 33.408 249.113 34.08 248.393 34.608C247.689 35.136 247.001 35.4 246.329 35.4C245.257 35.4 244.425 35.072 243.833 34.416C243.257 33.744 242.969 32.712 242.969 31.32C242.969 29.688 243.081 28.248 243.305 27C243.545 25.752 243.809 24.776 244.097 24.072C244.401 23.368 244.641 23.016 244.817 23.016C245.057 23.016 245.329 23.136 245.633 23.376C245.953 23.6 246.113 23.944 246.113 24.408C246.113 24.856 246.009 25.496 245.801 26.328C245.609 27.144 245.409 28.08 245.201 29.136C244.993 30.192 244.889 31.288 244.889 32.424C244.889 32.76 244.961 33.016 245.105 33.192C245.249 33.352 245.433 33.432 245.657 33.432C246.249 33.432 246.873 33.224 247.529 32.808C248.185 32.392 248.833 31.848 249.473 31.176C250.113 30.488 250.729 29.736 251.321 28.92C251.913 28.104 252.449 27.296 252.929 26.496C253.425 25.68 253.841 24.936 254.177 24.264C254.609 23.384 254.937 22.808 255.161 22.536C255.401 22.248 255.649 22.104 255.905 22.104C256.193 22.104 256.457 22.248 256.697 22.536C256.937 22.808 257.057 23.056 257.057 23.28C257.057 23.504 256.889 23.976 256.553 24.696C256.217 25.416 255.785 26.424 255.257 27.72C254.729 29 254.185 30.624 253.625 32.592C252.937 35.04 252.369 37.04 251.921 38.592C251.489 40.144 251.129 41.344 250.841 42.192C250.569 43.056 250.337 43.648 250.145 43.968C249.969 44.304 249.801 44.472 249.641 44.472Z" fill="white"/>
</svg>
