<svg width="1321" height="47" viewBox="0 0 1321 47" fill="none" xmlns="http://www.w3.org/2000/svg">
<rect y="4" width="145" height="35" rx="17.5" fill="#709778" fill-opacity="0.75"/>
<path d="M777.524 38.864C776.868 38.864 776.372 38.76 776.036 38.552C775.716 38.36 775.5 38.136 775.388 37.88C775.292 37.624 775.244 37.424 775.244 37.28C775.244 36.816 775.452 36.432 775.868 36.128C776.3 35.808 776.78 35.648 777.308 35.648C777.82 35.648 778.452 35.576 779.204 35.432C779.972 35.272 780.78 35.048 781.628 34.76C782.492 34.472 783.316 34.112 784.1 33.68C784.9 33.248 785.596 32.752 786.188 32.192C786.78 31.632 787.188 31.016 787.412 30.344C787.06 30.28 786.708 30.232 786.356 30.2C786.004 30.152 785.652 30.128 785.3 30.128C784.116 30.128 782.892 30.256 781.628 30.512C780.364 30.768 779.108 31.016 777.86 31.256C777.556 31.32 777.284 31.264 777.044 31.088C777.012 31.424 776.98 31.736 776.948 32.024C776.932 32.296 776.916 32.592 776.9 32.912C776.868 33.696 776.796 34.304 776.684 34.736C776.588 35.152 776.476 35.448 776.348 35.624C776.22 35.8 776.084 35.904 775.94 35.936C775.796 35.968 775.66 35.984 775.532 35.984C775.484 35.984 775.452 35.984 775.436 35.984C775.148 35.984 774.876 35.912 774.62 35.768C774.364 35.624 774.156 35.328 773.996 34.88C773.836 34.416 773.756 33.72 773.756 32.792C773.756 29.848 774.076 27.352 774.716 25.304C775.372 23.24 776.308 21.672 777.524 20.6C778.756 19.512 780.228 18.968 781.94 18.968C783.284 18.968 784.332 19.336 785.084 20.072C785.836 20.792 786.212 21.832 786.212 23.192C786.212 23.88 786.076 24.568 785.804 25.256C785.532 25.944 785.148 26.624 784.652 27.296C784.956 27.232 785.252 27.184 785.54 27.152C785.828 27.104 786.1 27.08 786.356 27.08C787.86 27.08 788.972 27.352 789.692 27.896C790.412 28.424 790.772 29.136 790.772 30.032C790.772 30.928 790.516 31.768 790.004 32.552C789.508 33.336 788.844 34.056 788.012 34.712C787.196 35.352 786.292 35.936 785.3 36.464C784.308 36.976 783.316 37.416 782.324 37.784C781.332 38.136 780.412 38.4 779.564 38.576C778.716 38.768 778.036 38.864 777.524 38.864ZM777.332 28.616C777.428 28.568 777.532 28.536 777.644 28.52C779.084 28.28 780.188 27.952 780.956 27.536C781.724 27.12 782.252 26.6 782.54 25.976C782.828 25.352 782.972 24.608 782.972 23.744C782.972 23.52 782.94 23.28 782.876 23.024C782.812 22.768 782.684 22.552 782.492 22.376C782.316 22.184 782.044 22.088 781.676 22.088C780.46 22.088 779.508 22.64 778.82 23.744C778.148 24.832 777.652 26.456 777.332 28.616ZM797.055 38.816C796.063 38.816 795.263 38.472 794.655 37.784C794.047 37.08 793.743 35.952 793.743 34.4C793.743 33.408 793.855 32.416 794.079 31.424C794.319 30.416 794.647 29.464 795.063 28.568C795.495 27.656 795.991 26.848 796.551 26.144C797.127 25.44 797.759 24.888 798.447 24.488C799.135 24.072 799.847 23.864 800.583 23.864C801.831 23.864 802.807 24.2 803.511 24.872C804.215 25.544 804.567 26.4 804.567 27.44C804.567 28.24 804.343 28.968 803.895 29.624C803.463 30.264 802.871 30.84 802.119 31.352C801.367 31.864 800.527 32.328 799.599 32.744C798.671 33.16 797.719 33.536 796.743 33.872C796.663 34.448 796.623 34.96 796.623 35.408C796.623 35.68 796.775 35.816 797.079 35.816C797.799 35.816 798.567 35.704 799.383 35.48C800.215 35.24 801.055 34.936 801.903 34.568C802.751 34.184 803.567 33.792 804.351 33.392C805.135 32.976 805.847 32.584 806.487 32.216C807.143 31.832 807.679 31.528 808.095 31.304C808.527 31.064 808.807 30.944 808.935 30.944C809.287 30.944 809.543 31.048 809.703 31.256C809.863 31.464 809.943 31.688 809.943 31.928C809.943 32.04 809.727 32.288 809.295 32.672C808.879 33.056 808.303 33.512 807.567 34.04C806.847 34.552 806.031 35.088 805.119 35.648C804.223 36.192 803.287 36.712 802.311 37.208C801.351 37.688 800.415 38.072 799.503 38.36C798.607 38.664 797.791 38.816 797.055 38.816ZM797.151 31.736C797.807 31.352 798.455 30.952 799.095 30.536C799.751 30.104 800.295 29.624 800.727 29.096C801.159 28.552 801.375 27.92 801.375 27.2C801.375 26.992 801.319 26.856 801.207 26.792C801.095 26.712 800.935 26.672 800.727 26.672C800.167 26.672 799.655 26.92 799.191 27.416C798.743 27.912 798.343 28.552 797.991 29.336C797.655 30.104 797.375 30.904 797.151 31.736ZM810.057 38C809.673 38 809.289 37.872 808.905 37.616C808.537 37.344 808.233 36.96 807.993 36.464C807.753 35.952 807.633 35.336 807.633 34.616C807.633 33.656 807.761 32.632 808.017 31.544C808.289 30.456 808.617 29.368 809.001 28.28C809.385 27.192 809.761 26.168 810.129 25.208C810.305 24.744 810.521 24.432 810.777 24.272C811.033 24.096 811.369 24.008 811.785 24.008C812.729 24.008 813.201 24.48 813.201 25.424C813.201 25.584 813.129 25.896 812.985 26.36C812.841 26.808 812.649 27.36 812.409 28.016C812.185 28.672 811.945 29.384 811.689 30.152C811.449 30.904 811.225 31.672 811.017 32.456C810.825 33.224 810.673 33.952 810.561 34.64C810.929 34.08 811.337 33.384 811.785 32.552C812.249 31.704 812.737 30.816 813.249 29.888C813.777 28.96 814.305 28.096 814.833 27.296C815.361 26.48 815.881 25.816 816.393 25.304C816.905 24.792 817.393 24.536 817.857 24.536C818.257 24.536 818.633 24.616 818.985 24.776C819.353 24.92 819.673 25.208 819.945 25.64C820.217 26.056 820.425 26.656 820.569 27.44C820.729 28.224 820.809 29.256 820.809 30.536C820.809 31.176 820.865 31.8 820.977 32.408C821.105 33 821.313 33.496 821.601 33.896C821.889 34.28 822.297 34.472 822.825 34.472C823.737 34.472 824.553 34.304 825.273 33.968C825.993 33.632 826.625 33.24 827.169 32.792C827.713 32.344 828.169 31.952 828.537 31.616C828.761 31.392 828.953 31.216 829.113 31.088C829.289 30.96 829.433 30.896 829.545 30.896C829.881 30.896 830.121 30.984 830.265 31.16C830.425 31.336 830.505 31.576 830.505 31.88C830.505 32.04 830.369 32.336 830.097 32.768C829.825 33.2 829.441 33.696 828.945 34.256C828.465 34.8 827.913 35.328 827.289 35.84C826.665 36.352 825.993 36.776 825.273 37.112C824.553 37.448 823.817 37.616 823.065 37.616C821.801 37.616 820.753 37.392 819.921 36.944C819.105 36.48 818.497 35.712 818.097 34.64C817.697 33.552 817.497 32.072 817.497 30.2C817.497 30.152 817.497 30.072 817.497 29.96C817.497 29.464 817.489 29.024 817.473 28.64C817.473 28.256 817.449 27.944 817.401 27.704C817.129 28.2 816.801 28.792 816.417 29.48C816.049 30.168 815.649 30.904 815.217 31.688C814.785 32.456 814.337 33.216 813.873 33.968C813.409 34.704 812.945 35.376 812.481 35.984C812.033 36.592 811.601 37.08 811.185 37.448C810.769 37.816 810.393 38 810.057 38ZM831.226 38.816C830.234 38.816 829.434 38.472 828.826 37.784C828.218 37.08 827.914 35.952 827.914 34.4C827.914 33.408 828.026 32.416 828.25 31.424C828.49 30.416 828.818 29.464 829.234 28.568C829.666 27.656 830.162 26.848 830.722 26.144C831.298 25.44 831.93 24.888 832.618 24.488C833.306 24.072 834.018 23.864 834.754 23.864C836.002 23.864 836.978 24.2 837.682 24.872C838.386 25.544 838.738 26.4 838.738 27.44C838.738 28.24 838.514 28.968 838.066 29.624C837.634 30.264 837.042 30.84 836.29 31.352C835.538 31.864 834.698 32.328 833.77 32.744C832.842 33.16 831.89 33.536 830.914 33.872C830.834 34.448 830.794 34.96 830.794 35.408C830.794 35.68 830.946 35.816 831.25 35.816C831.97 35.816 832.738 35.704 833.554 35.48C834.386 35.24 835.226 34.936 836.074 34.568C836.922 34.184 837.738 33.792 838.522 33.392C839.306 32.976 840.018 32.584 840.658 32.216C841.314 31.832 841.85 31.528 842.266 31.304C842.698 31.064 842.978 30.944 843.106 30.944C843.458 30.944 843.714 31.048 843.874 31.256C844.034 31.464 844.114 31.688 844.114 31.928C844.114 32.04 843.898 32.288 843.466 32.672C843.05 33.056 842.474 33.512 841.738 34.04C841.018 34.552 840.202 35.088 839.29 35.648C838.394 36.192 837.458 36.712 836.482 37.208C835.522 37.688 834.586 38.072 833.674 38.36C832.778 38.664 831.962 38.816 831.226 38.816ZM831.322 31.736C831.978 31.352 832.626 30.952 833.266 30.536C833.922 30.104 834.466 29.624 834.898 29.096C835.33 28.552 835.546 27.92 835.546 27.2C835.546 26.992 835.49 26.856 835.378 26.792C835.266 26.712 835.106 26.672 834.898 26.672C834.338 26.672 833.826 26.92 833.362 27.416C832.914 27.912 832.514 28.552 832.162 29.336C831.826 30.104 831.546 30.904 831.322 31.736ZM844.967 40.688C844.567 40.688 844.223 40.568 843.935 40.328C843.647 40.104 843.519 39.64 843.551 38.936C843.583 38.152 843.639 37.336 843.719 36.488C843.799 35.64 843.887 34.848 843.983 34.112C844.191 32.496 844.239 31.248 844.127 30.368C844.031 29.472 843.783 28.832 843.383 28.448C842.999 28.064 842.479 27.808 841.823 27.68C841.503 27.616 841.247 27.496 841.055 27.32C840.863 27.128 840.767 26.88 840.767 26.576C840.767 26.176 840.927 25.912 841.247 25.784C841.551 25.656 841.943 25.592 842.423 25.592C842.791 25.592 843.263 25.616 843.839 25.664C844.431 25.696 845.063 25.72 845.735 25.736C846.295 23.896 846.927 22.376 847.631 21.176C848.335 19.976 849.103 19.032 849.935 18.344C850.767 17.64 851.647 17.152 852.575 16.88C853.503 16.592 854.463 16.448 855.455 16.448C856.687 16.448 857.303 16.888 857.303 17.768C857.303 18.2 857.095 18.528 856.679 18.752C856.263 18.976 855.631 19.16 854.783 19.304C853.775 19.48 852.887 19.808 852.119 20.288C851.367 20.768 850.703 21.448 850.127 22.328C849.567 23.208 849.071 24.344 848.639 25.736C850.863 25.688 852.687 25.568 854.111 25.376C855.535 25.184 856.631 25 857.399 24.824C858.183 24.632 858.727 24.536 859.031 24.536C859.463 24.536 859.727 24.64 859.823 24.848C859.935 25.056 859.991 25.28 859.991 25.52C859.991 25.792 859.735 26.072 859.223 26.36C858.887 26.552 858.351 26.768 857.615 27.008C856.879 27.232 856.015 27.456 855.023 27.68C854.031 27.888 852.983 28.064 851.879 28.208C850.791 28.336 849.727 28.4 848.687 28.4C848.431 28.4 848.199 28.4 847.991 28.4C847.815 29.328 847.639 30.312 847.463 31.352C847.303 32.376 847.159 33.376 847.031 34.352C846.903 35.328 846.791 36.216 846.695 37.016C846.615 37.816 846.567 38.456 846.551 38.936C846.535 39.528 846.383 39.968 846.095 40.256C845.807 40.544 845.431 40.688 844.967 40.688ZM859.205 38.056C858.325 38.056 857.541 37.816 856.853 37.336C856.165 36.872 855.621 36.216 855.221 35.368C854.837 34.52 854.645 33.528 854.645 32.392C854.645 31.176 854.789 29.992 855.077 28.84C855.365 27.672 855.733 26.624 856.181 25.696C856.629 24.752 857.077 24.008 857.525 23.464C857.989 22.904 858.389 22.624 858.725 22.624C859.077 22.624 859.365 22.728 859.589 22.936C859.829 23.144 859.949 23.456 859.949 23.872C859.949 23.936 859.877 24.168 859.733 24.568C859.605 24.952 859.437 25.448 859.229 26.056C859.021 26.648 858.813 27.312 858.605 28.048C858.397 28.768 858.221 29.504 858.077 30.256C857.949 31.008 857.885 31.728 857.885 32.416C857.885 33.248 858.013 33.912 858.269 34.408C858.525 34.904 859.077 35.152 859.925 35.152C860.789 35.152 861.629 34.904 862.445 34.408C863.277 33.912 864.077 33.248 864.845 32.416C865.613 31.568 866.349 30.624 867.053 29.584C866.221 29.648 865.437 29.68 864.701 29.68C864.205 29.68 863.845 29.632 863.621 29.536C863.397 29.424 863.253 29.28 863.189 29.104C863.141 28.928 863.117 28.72 863.117 28.48C863.117 28.144 863.269 27.84 863.573 27.568C863.877 27.296 864.213 27.152 864.581 27.136C865.269 27.088 865.965 27.032 866.669 26.968C867.389 26.904 868.101 26.832 868.805 26.752C869.333 25.808 869.821 24.872 870.269 23.944C870.733 23 871.157 22.112 871.541 21.28C871.909 20.24 872.301 19.28 872.717 18.4C873.149 17.504 873.565 16.784 873.965 16.24C874.365 15.696 874.741 15.424 875.093 15.424C875.509 15.424 875.821 15.536 876.029 15.76C876.253 15.984 876.365 16.28 876.365 16.648C876.365 16.76 876.285 17.088 876.125 17.632C875.965 18.176 875.741 18.88 875.453 19.744C875.181 20.608 874.869 21.584 874.517 22.672C874.181 23.744 873.821 24.88 873.437 26.08C874.957 25.824 876.341 25.576 877.589 25.336C878.853 25.096 879.885 24.896 880.685 24.736C881.485 24.576 881.965 24.496 882.125 24.496C882.445 24.496 882.709 24.648 882.917 24.952C883.125 25.24 883.229 25.52 883.229 25.792C883.229 25.952 882.933 26.16 882.341 26.416C881.765 26.672 880.973 26.952 879.965 27.256C878.973 27.544 877.837 27.84 876.557 28.144C875.293 28.432 873.965 28.688 872.573 28.912C872.189 30.176 871.821 31.416 871.469 32.632C871.133 33.832 870.845 34.944 870.605 35.968C870.493 36.416 870.309 36.76 870.053 37C869.813 37.224 869.485 37.336 869.069 37.336C868.637 37.336 868.317 37.232 868.109 37.024C867.901 36.832 867.797 36.48 867.797 35.968C867.797 35.92 867.845 35.656 867.941 35.176C868.053 34.68 868.189 34.072 868.349 33.352C868.525 32.616 868.693 31.864 868.853 31.096C867.909 32.408 866.909 33.592 865.853 34.648C864.797 35.704 863.709 36.536 862.589 37.144C861.469 37.752 860.341 38.056 859.205 38.056ZM859.277 20.968C858.749 20.968 858.317 20.808 857.981 20.488C857.645 20.152 857.477 19.76 857.477 19.312C857.477 18.768 857.677 18.304 858.077 17.92C858.493 17.536 858.981 17.344 859.541 17.344C860.165 17.344 860.637 17.512 860.957 17.848C861.293 18.184 861.461 18.632 861.461 19.192C861.461 19.592 861.253 19.992 860.837 20.392C860.421 20.776 859.901 20.968 859.277 20.968Z" fill="white"/>
</svg>
