<svg width="84" height="84" viewBox="0 0 84 84" fill="none" xmlns="http://www.w3.org/2000/svg">
<g id="carbon:template">
<path id="Vector" d="M68.25 15.6742V26.1235H15.75V15.6742H68.25ZM68.25 10.4495H15.75C14.3576 10.4495 13.0223 10.9999 12.0377 11.9797C11.0531 12.9596 10.5 14.2885 10.5 15.6742V26.1235C10.5 27.5092 11.0531 28.8381 12.0377 29.818C13.0223 30.7978 14.3576 31.3482 15.75 31.3482H68.25C69.6424 31.3482 70.9777 30.7978 71.9623 29.818C72.9469 28.8381 73.5 27.5092 73.5 26.1235V15.6742C73.5 14.2885 72.9469 12.9596 71.9623 11.9797C70.9777 10.9999 69.6424 10.4495 68.25 10.4495ZM26.25 41.7976V67.9211H15.75V41.7976H26.25ZM26.25 36.5729H15.75C14.3576 36.5729 13.0223 37.1234 12.0377 38.1032C11.0531 39.083 10.5 40.412 10.5 41.7976V67.9211C10.5 69.3068 11.0531 70.6357 12.0377 71.6155C13.0223 72.5953 14.3576 73.1458 15.75 73.1458H26.25C27.6424 73.1458 28.9777 72.5953 29.9623 71.6155C30.9469 70.6357 31.5 69.3068 31.5 67.9211V41.7976C31.5 40.412 30.9469 39.083 29.9623 38.1032C28.9777 37.1234 27.6424 36.5729 26.25 36.5729ZM68.25 41.7976V67.9211H42V41.7976H68.25ZM68.25 36.5729H42C40.6076 36.5729 39.2723 37.1234 38.2877 38.1032C37.3031 39.083 36.75 40.412 36.75 41.7976V67.9211C36.75 69.3068 37.3031 70.6357 38.2877 71.6155C39.2723 72.5953 40.6076 73.1458 42 73.1458H68.25C69.6424 73.1458 70.9777 72.5953 71.9623 71.6155C72.9469 70.6357 73.5 69.3068 73.5 67.9211V41.7976C73.5 40.412 72.9469 39.083 71.9623 38.1032C70.9777 37.1234 69.6424 36.5729 68.25 36.5729Z" fill="#99BC85"/>
</g>
</svg>
