<svg width="102" height="102" viewBox="0 0 102 102" fill="none" xmlns="http://www.w3.org/2000/svg">
<g id="ph:tree-thin">
<path id="Vector" d="M78.2612 26.2614C77.901 26.0938 77.6168 25.7982 77.4643 25.4327C75.2798 20.2423 71.6027 15.8101 66.8949 12.693C62.1871 9.57586 56.6586 7.91284 51.0041 7.91284C45.3495 7.91284 39.8211 9.57586 35.1133 12.693C30.4055 15.8101 26.7284 20.2423 24.5439 25.4327C24.3914 25.7982 24.1072 26.0938 23.747 26.2614C19.0574 28.4187 15.0827 31.8612 12.2883 36.1857C9.4939 40.5102 7.99559 45.5375 7.96885 50.6789C7.92901 65.2152 19.7706 77.3407 34.3653 77.7095C39.674 77.849 44.906 76.427 49.4064 73.6214V91.992C49.4064 92.4127 49.5743 92.8161 49.8731 93.1135C50.172 93.411 50.5774 93.5781 51.0001 93.5781C51.4228 93.5781 51.8282 93.411 52.1271 93.1135C52.4259 92.8161 52.5939 92.4127 52.5939 91.992V73.6214C56.8909 76.3065 61.8637 77.7265 66.9376 77.7174H67.6389C82.2296 77.3486 94.0712 65.2231 94.0314 50.6868C94.0068 45.545 92.5104 40.5165 89.7174 36.1906C86.9244 31.8647 82.9505 28.4205 78.2612 26.2614ZM67.5552 74.5453C62.6203 74.6835 57.7655 73.2832 53.6696 70.5404C53.3343 70.319 52.973 70.1393 52.5939 70.0051V51.7336L70.8383 42.6574C71.2166 42.4691 71.5043 42.139 71.638 41.7397C71.7718 41.3404 71.7407 40.9046 71.5515 40.5281C71.3624 40.1516 71.0307 39.8653 70.6294 39.7322C70.2282 39.5991 69.7902 39.6301 69.4119 39.8183L52.5939 48.1888V34.8936C52.5939 34.4729 52.4259 34.0695 52.1271 33.772C51.8282 33.4746 51.4228 33.3075 51.0001 33.3075C50.5774 33.3075 50.172 33.4746 49.8731 33.772C49.5743 34.0695 49.4064 34.4729 49.4064 34.8936V57.7052L32.5883 49.3347C32.21 49.1465 31.772 49.1155 31.3708 49.2486C30.9695 49.3817 30.6378 49.668 30.4487 50.0445C30.2595 50.421 30.2284 50.8568 30.3622 51.2561C30.4959 51.6554 30.7836 51.9855 31.1619 52.1738L49.4064 61.25V70.0051C49.0272 70.1393 48.6659 70.319 48.3306 70.5404C44.2355 73.2849 39.3801 74.6853 34.445 74.5453C29.0448 74.4098 23.8499 72.4582 19.7068 69.0085C15.5637 65.5589 12.7168 60.8144 11.6299 55.5485C10.5431 50.2825 11.2804 44.8054 13.7217 40.0099C16.163 35.2143 20.1644 31.3829 25.0738 29.1401C26.1548 28.6417 27.0081 27.7571 27.4644 26.6619C29.4051 22.0461 32.6737 18.1042 36.8592 15.3318C41.0447 12.5594 45.9603 11.0803 50.9882 11.0803C56.016 11.0803 60.9316 12.5594 65.1171 15.3318C69.3026 18.1042 72.5712 22.0461 74.5119 26.6619C74.9682 27.7571 75.8215 28.6417 76.9025 29.1401C81.8104 31.3819 85.811 35.2112 88.2528 40.0045C90.6947 44.7978 91.4339 50.2726 90.3501 55.5373C89.2662 60.8021 86.4232 65.5465 82.2841 68.998C78.1449 72.4496 72.9535 74.4048 67.5552 74.5453Z" fill="#99BC85"/>
</g>
</svg>
