<svg width="91" height="91" viewBox="0 0 91 91" fill="none" xmlns="http://www.w3.org/2000/svg">
<g id="solar:high-quality-line-duotone">
<g id="Group">
<path id="Vector" opacity="0.5" d="M7.58301 45.2808C7.58301 27.493 7.58301 18.5991 13.134 13.0711C18.6926 7.54688 27.6258 7.54688 45.4997 7.54688C63.3736 7.54688 72.3106 7.54688 77.8616 13.0711C83.4163 18.6029 83.4163 27.493 83.4163 45.2808C83.4163 63.0685 83.4163 71.9624 77.8616 77.4867C72.3143 83.0147 63.3736 83.0147 45.4997 83.0147C27.6258 83.0147 18.6888 83.0147 13.134 77.4867C7.58301 71.9662 7.58301 63.0685 7.58301 45.2808Z" stroke="#99BC85" stroke-width="5"/>
<path id="Vector_2" d="M22.75 30.1873V58.9367M41.0069 30.1873V58.9367M22.75 45.2808H41.0069M72.0417 60.3744L64.7389 54.6237M61.0875 58.9367C59.3927 58.9367 58.5433 58.9367 57.8381 58.8235C54.9412 58.3707 52.6776 56.5897 52.1013 54.3068C51.961 53.7521 51.961 53.0842 51.961 51.7484V37.3718C51.961 36.0398 51.961 35.3719 52.1013 34.8172C52.6776 32.5343 54.9412 30.7533 57.8381 30.2967C58.5433 30.1873 59.3927 30.1873 61.0838 30.1873C62.7824 30.1873 63.628 30.1873 64.3332 30.3005C67.23 30.7533 69.4937 32.5343 70.0738 34.8172C70.2141 35.3719 70.2141 36.0398 70.2141 37.3756V51.7522C70.2141 53.0842 70.2141 53.7521 70.0738 54.3105C69.4975 56.5897 67.23 58.3707 64.3332 58.8273C63.628 58.9367 62.7824 58.9367 61.0875 58.9367Z" stroke="#99BC85" stroke-width="5" stroke-linecap="round"/>
</g>
</g>
</svg>
